<svg width="160" height="160" viewBox="0 0 160 160" fill="none" xmlns="http://www.w3.org/2000/svg">
<g clip-path="url(#clip0_1_18)">
<path fill-rule="evenodd" clip-rule="evenodd" d="M96 56C96 51.584 99.584 48 104 48H120C124.416 48 128 51.584 128 56V72C128 76.416 124.416 80 120 80H104C99.6 80 96 76.4 96 72V56ZM64 72C64 76.416 60.416 80 56 80H40C35.6 80 32 76.4 32 72V56C32 51.584 35.584 48 40 48H56C60.416 48 64 51.584 64 56V72ZM120 91H80H40C40 147 120 147 120 91ZM144 136C144 140.416 140.416 144 136 144H24C19.584 144 16 140.416 16 136V24C16 19.584 19.584 16 24 16H136C140.416 16 144 19.584 144 24V136ZM160 16C160 7.16 152.84 0 144 0H16C7.16 0 0 7.16 0 16V144C0 152.84 7.16 160 16 160H144C152.84 160 160 152.84 160 144V16Z" fill="black"/>
</g>
<defs>
<clipPath id="clip0_1_18">
<rect width="160" height="160" fill="white"/>
</clipPath>
</defs>
</svg>
