<svg width="581" height="497" viewBox="0 0 581 497" fill="none" xmlns="http://www.w3.org/2000/svg">
<path d="M467.693 243.594C472.969 242.836 492.333 260.988 471.819 286.554C454.371 275.174 460.175 244.675 467.693 243.594Z" fill="#090814"/>
<path d="M465.631 322.078C465.781 321.86 464.688 321.275 468.931 317.947C476.164 312.274 493.195 307.615 502.76 307.62C490.477 305.297 479.404 310.899 468.931 316.295C472.868 288.619 510.838 299.23 507.711 309.272C507.346 310.445 487.452 320.055 485.846 320.425C473.919 323.172 471.37 317.614 465.631 322.078Z" fill="#090814"/>
<path d="M484.608 375.777C484.821 375.526 484.988 374.386 488.734 370.82C496.894 363.051 512.371 356.971 522.976 363.385C531.115 368.308 512.281 379.259 508.949 379.907C502.352 381.191 490.722 379.098 484.608 375.777Z" fill="#090814"/>
<path d="M509.361 344.383C509.033 344.7 507.965 343.302 507.711 346.036C499.732 352.684 495.314 335.221 499.46 323.317C507.239 300.981 522.818 329.757 509.361 344.383Z" fill="#090814"/>
<path d="M528.339 331.165L562.168 327.447C544.331 326.654 523.598 331.79 533.289 324.556C543.505 316.931 577.719 320.491 556.805 334.47C546.168 341.579 537.806 337.719 528.339 331.165Z" fill="#090814"/>
<path d="M475.532 291.51C470.435 299.5 467.693 312.8 463.98 321.665L465.631 322.078C460.579 329.354 457.085 343.296 455.729 352.232L471.819 390.647C482.03 377.767 493.932 358.345 506.886 348.514C507.036 349.386 506.57 350.38 506.061 350.992C500.475 357.713 493.062 363.012 488.734 370.82C484.988 374.386 484.821 375.526 484.608 375.777C483.126 377.519 473.233 390.911 473.057 391.886C472.777 393.43 478.36 410.611 480.483 411.301C479.327 412.364 478.512 412.261 478.832 413.779C472.398 393.484 451.864 343.699 442.528 322.078C443.058 322.138 443.752 321.958 444.178 322.078L454.492 347.688C457.051 338.727 459.955 336.325 455.729 331.165H456.554C460.769 336.509 463.633 313.355 474.707 291.51L475.532 291.51Z" fill="#090814"/>
<path d="M533.289 324.556C523.598 331.79 544.331 326.654 562.168 327.448L528.339 331.165C527.911 330.869 527.223 330.472 526.688 330.339C528.687 328.327 530.616 325.903 532.464 323.73C532.692 323.622 533.081 323.844 533.289 323.73V324.556Z" fill="white"/>
<path d="M532.464 323.73C530.616 325.903 528.687 328.327 526.688 330.339C521.258 335.806 514.841 340.647 510.186 346.862C510.076 346.932 508.894 346.844 507.711 347.688C507.734 347.144 507.661 346.575 507.711 346.036C508.468 345.405 508.728 345.072 509.361 344.383C516.488 337.499 524.347 331.295 530.814 323.73C531.246 323.584 532.151 323.879 532.464 323.73Z" fill="#090814"/>
<path d="M468.931 317.947V316.295C479.404 310.899 490.477 305.297 502.76 307.62C493.195 307.615 476.164 312.274 468.931 317.947Z" fill="white"/>
<path d="M455.729 331.165C459.955 336.325 457.051 338.727 454.492 347.688L444.178 322.078C444.885 322.277 455.264 330.596 455.729 331.165Z" fill="white"/>
<path d="M475.532 291.51H474.707C482.812 275.522 494.08 261.338 502.76 245.66C512.802 234.189 534.351 217.722 550.204 222.941C560.792 226.426 552.981 236.329 547.729 241.116C528.931 258.246 492.711 253.523 484.196 279.118C498.654 261.964 519.546 274.253 520.088 279.531C520.972 288.155 493.299 300.779 480.07 285.727C478.161 287.331 476.844 289.454 475.532 291.51Z" fill="#090814"/>
<path d="M498.222 276.64C515.247 274.454 527.303 278.714 496.572 278.292L483.371 284.075L482.545 282.423C487.504 280.413 492.839 277.331 498.222 276.64Z" fill="white"/>
<path d="M541.54 314.642C543.003 312.299 548.523 292.557 566.706 290.684C596.465 287.62 570.934 313.943 560.93 315.468C553.682 316.574 546.806 312.505 541.54 314.642Z" fill="#090814"/>
<path d="M575.782 294.815L577.845 295.228C537.34 316.203 530.006 317.251 575.782 294.815Z" fill="white"/>
<path d="M481.72 336.122C488.262 334.653 499.552 356.825 481.72 375.777C465.409 361.71 476.083 337.388 481.72 336.122Z" fill="#090814"/>
<path d="M482.545 338.6C485.145 348.724 483.25 362.168 481.72 372.472L482.545 338.6Z" fill="white"/>
<path d="M541.54 314.642C539.578 317.784 536.542 321.954 533.289 323.73C533.081 323.844 532.692 323.622 532.464 323.73C532.151 323.879 531.246 323.584 530.814 323.73C527.847 324.73 527.238 326.561 526.276 326.208C511.544 306.375 533.273 277.255 539.065 301.011C542.106 313.481 533.279 322.026 541.54 314.642Z" fill="#090814"/>
<path d="M531.227 295.641L531.639 307.62C527.023 339.731 528.847 310.111 531.227 295.641Z" fill="white"/>
<path d="M509.361 344.383C508.728 345.072 508.468 345.405 507.711 346.036C507.965 343.302 509.033 344.7 509.361 344.383Z" fill="white"/>
<path d="M506.061 350.993C506.57 350.38 507.036 349.386 506.886 348.514C506.932 348.479 506.839 348.31 507.711 347.688C508.894 346.844 510.076 346.932 510.186 346.862C534.508 331.384 548.772 341.045 537.002 350.166C528.218 356.974 515.294 356.799 506.061 350.993Z" fill="#090814"/>
<path d="M540.303 343.557C540.965 343.834 540.968 344.926 540.303 345.21C533.022 348.308 478.578 351.537 540.303 343.557Z" fill="white"/>
<path d="M506.061 475.74L504.411 475.327C505.286 474.131 505.992 474.164 506.061 474.087C505.95 474.298 506.122 475.106 506.061 475.74Z" fill="white"/>
<path d="M501.935 476.979C501.769 477.641 501.759 479.478 502.348 479.87C502.868 479.171 505.81 475.858 506.061 475.74C509.67 474.041 521.033 472.401 525.451 472.435C527.933 472.454 553.176 476.515 553.092 478.631C543.686 488.547 512.071 491.453 501.11 484.827C512.955 479.73 526.683 482.454 539.065 478.631L498.635 482.762" fill="#090814"/>
<path d="M506.061 474.087C505.992 474.164 505.286 474.131 504.411 475.327L506.061 475.74C505.81 475.858 502.868 479.171 502.348 479.87C501.759 479.478 501.769 477.641 501.935 476.979" fill="#555758"/>
<path d="M499.46 486.48V484.414C499.989 483.425 500.469 485.103 501.11 484.827C512.071 491.453 543.686 488.547 553.092 478.631C553.176 476.515 527.934 472.454 525.451 472.435C521.033 472.401 509.67 474.041 506.061 475.74C506.123 475.106 505.95 474.298 506.061 474.087C507.991 471.945 510.874 470.269 512.662 467.891C513.36 450.358 533.207 435.006 548.554 429.476C574.717 420.048 570.984 434.957 558.868 450.542C540.003 474.808 506.127 466.405 508.536 473.674C524.112 469.053 540.533 472.446 555.567 477.805C544.198 491.593 515.032 490.895 499.46 486.48Z" fill="#090814"/>
<path d="M557.63 427.824C569.756 426.301 568.665 432.096 561.343 444.759C554.814 456.051 539.184 466.156 526.276 467.478C507.035 469.449 530.242 462.414 543.603 452.608C563.54 435.537 520.23 466.096 516.375 467.478C509.231 470.04 518.495 451.55 526.276 444.346C531.291 439.703 551.393 428.607 557.63 427.824Z" fill="#090814"/>
<path d="M142.703 202.798C136.552 201.914 113.973 223.079 137.893 252.89C158.238 239.62 151.47 204.058 142.703 202.798Z" fill="#090814"/>
<path d="M145.109 294.312C144.933 294.058 146.207 293.375 141.26 289.495C132.827 282.88 112.967 277.448 101.814 277.454C116.137 274.744 129.048 281.277 141.26 287.569C136.67 255.298 92.396 267.671 96.0417 279.38C96.4675 280.748 119.664 291.954 121.537 292.385C135.444 295.588 138.417 289.107 145.109 294.312Z" fill="#090814"/>
<path d="M122.981 356.926C122.732 356.634 122.538 355.305 118.17 351.147C108.654 342.088 90.6078 334.999 78.243 342.477C68.752 348.217 90.7127 360.987 94.5986 361.743C102.291 363.24 115.852 360.799 122.981 356.926Z" fill="#090814"/>
<path d="M94.1175 320.321C94.5 320.69 95.7458 319.059 96.0417 322.248C105.345 330 110.497 309.637 105.663 295.757C96.5923 269.712 78.4269 303.266 94.1175 320.321Z" fill="#090814"/>
<path d="M71.9893 304.908L32.5433 300.573C53.3422 299.648 77.5171 305.636 66.2167 297.202C54.3044 288.31 14.4104 292.462 38.7969 308.761C51.1994 317.051 60.9501 312.55 71.9893 304.908Z" fill="#090814"/>
<path d="M133.563 258.669C139.506 267.986 142.704 283.494 147.033 293.83L145.109 294.312C151 302.796 155.073 319.053 156.654 329.472L137.893 374.266C125.987 359.248 112.108 336.6 97.0038 325.137C96.8286 326.154 97.3724 327.313 97.9659 328.027C104.479 335.864 113.123 342.042 118.17 351.147C122.538 355.305 122.732 356.634 122.98 356.927C124.708 358.959 136.244 374.573 136.45 375.711C136.775 377.511 130.266 397.544 127.791 398.349C129.139 399.589 130.088 399.468 129.715 401.239C137.218 377.574 161.16 319.523 172.047 294.312C171.429 294.382 170.619 294.172 170.123 294.312L158.097 324.174C155.112 313.726 151.727 310.924 156.654 304.908H155.692C150.777 311.139 147.438 284.141 134.526 258.669L133.563 258.669Z" fill="#090814"/>
<path d="M66.2167 297.202C77.5172 305.636 53.3422 299.648 32.5433 300.573L71.9893 304.908C72.4884 304.563 73.2903 304.1 73.9135 303.945C71.5831 301.598 69.3335 298.772 67.1788 296.238C66.9129 296.112 66.4596 296.371 66.2167 296.238V297.202Z" fill="white"/>
<path d="M67.1788 296.238C69.3335 298.772 71.5831 301.598 73.9135 303.945C80.2453 310.32 87.7277 315.965 93.1555 323.211C93.2838 323.293 94.6621 323.19 96.0418 324.174C96.0146 323.54 96.1001 322.876 96.0418 322.248C95.1592 321.512 94.8559 321.123 94.1176 320.321C85.8071 312.293 76.6434 305.06 69.103 296.238C68.599 296.069 67.5444 296.412 67.1788 296.238Z" fill="#090814"/>
<path d="M141.26 289.495V287.569C129.048 281.277 116.137 274.745 101.814 277.454C112.967 277.448 132.827 282.88 141.26 289.495Z" fill="white"/>
<path d="M156.654 304.908C151.727 310.924 155.112 313.726 158.097 324.174L170.123 294.312C169.299 294.544 157.197 304.245 156.654 304.908Z" fill="white"/>
<path d="M133.564 258.669H134.526C125.074 240.026 111.936 223.487 101.814 205.206C90.1049 191.831 64.9791 172.63 46.4937 178.715C34.1478 182.78 43.2559 194.327 49.38 199.908C71.2984 219.882 113.532 214.375 123.462 244.22C106.603 224.218 82.2414 238.547 81.6103 244.702C80.5793 254.757 112.847 269.476 128.272 251.926C130.498 253.797 132.034 256.271 133.564 258.669Z" fill="#090814"/>
<path d="M107.106 241.33C87.2544 238.781 73.1969 243.749 109.03 243.257L124.424 250L125.386 248.073C119.604 245.729 113.383 242.136 107.106 241.33Z" fill="white"/>
<path d="M56.5958 285.642C54.8899 282.91 48.4531 259.89 27.2518 257.706C-7.44779 254.133 22.3223 284.826 33.9865 286.605C42.4381 287.894 50.4553 283.149 56.5958 285.642Z" fill="#090814"/>
<path d="M16.6687 262.523L14.2634 263.004C61.4929 287.462 70.0455 288.683 16.6687 262.523Z" fill="white"/>
<path d="M126.348 310.688C118.72 308.975 105.555 334.828 126.348 356.926C145.367 340.525 132.921 312.164 126.348 310.688Z" fill="#090814"/>
<path d="M125.386 313.578C122.354 325.382 124.564 341.059 126.348 353.073L125.386 313.578Z" fill="white"/>
<path d="M56.5957 285.642C58.8834 289.306 62.4239 294.167 66.2167 296.238C66.4595 296.371 66.9128 296.112 67.1788 296.238C67.5443 296.412 68.5989 296.069 69.103 296.238C72.5631 297.404 73.2732 299.54 74.3945 299.128C91.5719 276.002 66.2359 242.047 59.482 269.747C55.9367 284.288 66.2289 294.251 56.5957 285.642Z" fill="#090814"/>
<path d="M68.622 263.486L68.1409 277.454C73.5237 314.896 71.3971 280.358 68.622 263.486Z" fill="white"/>
<path d="M94.1176 320.321C94.8559 321.123 95.1592 321.512 96.0417 322.248C95.7458 319.059 94.5 320.69 94.1176 320.321Z" fill="white"/>
<path d="M97.9659 328.027C97.3725 327.313 96.8287 326.154 97.0038 325.137C96.9496 325.096 97.0583 324.899 96.0417 324.174C94.6621 323.19 93.2838 323.293 93.1554 323.211C64.7958 305.164 48.1635 316.428 61.8873 327.064C72.1302 335.002 87.2002 334.798 97.9659 328.027Z" fill="#090814"/>
<path d="M58.0389 319.358C57.2668 319.68 57.2628 320.954 58.0389 321.284C66.529 324.897 130.012 328.663 58.0389 319.358Z" fill="white"/>
<path d="M97.966 473.486L99.8902 473.005C98.8696 471.61 98.0465 471.649 97.966 471.56C98.0956 471.805 97.894 472.747 97.966 473.486Z" fill="white"/>
<path d="M102.776 474.931C102.97 475.703 102.982 477.846 102.295 478.303C101.689 477.488 98.2588 473.624 97.9659 473.486C93.7572 471.506 80.5081 469.594 75.3566 469.633C72.4616 469.655 43.0286 474.39 43.1264 476.858C54.0942 488.42 90.9573 491.808 103.739 484.083C89.9264 478.14 73.9202 481.315 59.4821 476.858L106.625 481.674" fill="#090814"/>
<path d="M97.9659 471.56C98.0465 471.649 98.8696 471.61 99.8901 473.005L97.9659 473.486C98.2588 473.624 101.689 477.488 102.295 478.303C102.982 477.846 102.97 475.703 102.776 474.931" fill="#555758"/>
<path d="M105.663 486.009V483.601C105.046 482.448 104.486 484.404 103.739 484.083C90.9573 491.808 54.0941 488.42 43.1264 476.858C43.0286 474.39 72.4616 469.655 75.3567 469.633C80.5081 469.594 93.7572 471.506 97.9659 473.486C97.894 472.747 98.0955 471.805 97.9659 471.56C95.7148 469.062 92.3538 467.108 90.2692 464.335C89.4552 443.891 66.3123 425.989 48.4179 419.541C17.9113 408.549 22.2633 425.932 36.3917 444.106C58.3886 472.4 97.8887 462.602 95.0796 471.078C76.9175 465.69 57.77 469.645 40.2401 475.895C53.4971 491.972 87.5051 491.158 105.663 486.009Z" fill="#090814"/>
<path d="M37.8349 417.615C23.696 415.839 24.9676 422.596 33.5054 437.362C41.118 450.529 59.3436 462.312 74.3946 463.853C96.8297 466.151 69.7703 457.948 54.1905 446.514C30.9438 426.609 81.4443 462.241 85.9397 463.853C94.2699 466.841 83.4669 445.28 74.3946 436.881C68.5468 431.467 45.1067 418.528 37.8349 417.615Z" fill="#090814"/>
<path d="M211.466 134.266C199.766 86.5938 228.879 38.4504 276.492 26.7355C324.105 15.0206 372.188 44.1702 383.888 91.8431C393.377 130.506 376.019 169.474 343.722 189.073L354.122 303.455L251.762 253.469C251.762 253.469 264.372 225.545 267.737 196.729C240.679 186.995 218.841 164.318 211.466 134.266Z" fill="#FFB6B6"/>
<path d="M346.272 220.308C346.272 220.308 309.171 285.551 252.609 224.13L147.628 372.731L197.753 493.554L426.825 497L416.819 356.002L346.272 220.308Z" fill="#090814"/>
<path d="M255.748 238.418L266.443 220.308C266.443 220.308 136.724 242.046 136.682 277.66L78.2009 459.407C75.1108 469.01 88.9089 479.537 96.1874 486.515C101.001 491.129 107.384 493.743 114.047 493.828L165.148 494.483L166.386 436.692L202.126 326.913L255.748 238.418Z" fill="#090814"/>
<path d="M342.501 234.426L345.64 220.138C345.64 220.138 461.525 238.054 461.567 273.668L520.048 455.415C523.138 465.018 509.34 475.545 502.062 482.523C497.248 487.137 490.865 489.751 484.202 489.836L433.101 490.491L431.863 432.7L396.123 322.921L342.501 234.426Z" fill="#090814"/>
<path d="M353.403 221.766C353.094 221.652 352.714 221.547 352.254 221.454C341.229 219.214 340.019 221.051 337.402 199.148C336.982 195.628 336.65 191.845 335.752 188.408C345.412 179.021 358.344 159.423 363.806 146.688C365.249 145.539 370.179 142.475 370.406 142.144C370.406 142.144 370.406 142.238 371.232 141.318C384.46 119.862 381.15 99.8663 366.694 117.36C342.919 92.1156 300.707 89.916 280.883 63.6611C264.186 68.8614 251.783 87.6571 246.641 103.729C240.047 124.338 244.991 146.688 244.991 146.688C248.691 158.278 266.471 183.448 274.694 190.887C276.565 199.332 275.573 206.88 273.869 214.845C273.124 218.327 269.613 223.041 269.744 224.345L223.538 218.562C222.866 216.95 208.712 214.784 200.435 193.778C181.714 146.27 202.983 16.0918 272.632 16.5711C291.839 -9.3643 332.917 -1.31999 355.142 16.5711C398.933 51.8227 427.952 168.27 395.985 204.518C383.068 219.165 360.786 219.259 356.76 221.641L353.403 221.766Z" fill="#090814"/>
<path d="M371.231 141.318C374.816 141.721 378.257 147.782 377.832 151.645C376.984 159.374 364.126 159.41 365.455 153.296C365.83 151.574 372.286 149.929 370.406 141.318" fill="white"/>
<path d="M307.864 360.806C307.578 365.524 306.899 370.055 308.076 374.763C316.533 367.137 330.611 365.563 326.825 370.631C326.096 371.607 315.631 373.557 315.099 378.774C333.545 370.278 338.985 361.024 325.434 385.895C317.413 392.335 308.966 386.987 307.785 387.716C303.95 390.086 308.572 426.951 311.025 425.267C312.125 404.845 312.635 452.722 321.783 460.301C324.683 462.703 320.184 449.38 324.587 454.877C325.124 455.548 325.461 461.686 325.396 463.009C325.38 463.335 323.574 462.184 323.996 468.232C320.321 463.136 318.06 457.127 315.158 451.571C314.062 444.809 308.628 424.414 304.903 420.051C295.344 408.853 292.128 424.409 281.722 400.791C300.249 399.847 305.35 419.973 307.209 418.643C301.911 402.989 305.895 386.778 305.276 385.208C304.021 382.027 295.26 375.901 302.569 386.315C290.532 386.259 287.806 377.612 281.496 369.262C290.96 366.938 300.846 370.239 305.171 379.485C305.877 374.133 306.885 353.36 301.238 352.076C299.654 351.716 298.066 364.324 273.053 345.372C284.951 337.17 299.988 336.344 304.848 352.274C312.537 337.792 305.778 345.437 305.244 345.044C303.831 344.005 308.765 334.683 286.167 316.945C298.651 336.637 252.373 319.759 281.052 316.246C276.457 292.089 282.666 310.239 286.566 314.736C288.653 317.141 304.384 333.638 305.736 333.497C306.261 333.442 308.081 325.522 313.053 329.575C318.404 333.936 308.869 347.907 313.767 344.535C322.406 338.589 307.854 316.864 312.134 308.188C318.812 294.649 313.206 313.092 320.359 310.591C304.301 330.4 332.936 334.511 306.555 354.18C306.453 356.235 307.884 360.469 307.864 360.806Z" fill="#FF6363"/>
<path d="M345.525 374.665C342.591 377.658 336.353 379.168 332.393 380.5C321.411 390.115 324.924 435.248 328.337 449.585C325.758 449.476 325.486 448.578 325.327 448.583L323.01 434.93L323.323 449.589C322.136 449.931 321.985 449.765 321.919 449.791C321.595 443.749 320.468 438.947 320.902 432.722C321.165 428.956 323.534 430.297 323.607 429.105C323.708 427.44 322.501 418.05 322.99 409.827C323.351 403.739 326.624 385.319 326.176 382.111C325.038 373.959 309.184 358.873 324.353 359.42C323.549 353.911 328.495 345.319 331.055 338.73C332.126 335.974 337.075 328.697 336.761 326.074C336.273 322.001 333.129 324.133 331.844 321.761C329.937 318.241 333.81 302.347 337.846 303.682C340.232 304.471 335.135 314.971 349.879 302.668C347.158 322.496 354.064 311.764 356.709 315.314C361.787 322.132 337.919 317.575 330.158 344.957C327.023 356.017 331.386 364.466 341.295 352.679C346.332 362.028 340.144 367.449 341.509 369.146C342.539 370.426 354.926 365.074 345.525 374.665Z" fill="#6C63FF"/>
<path d="M260.296 340.241C262.713 345.939 264.56 351.649 268.685 356.481C274.154 342.594 289.742 332.518 288.26 340.673C287.974 342.244 276.84 350.65 279.259 357.077C295.933 336.33 296.914 322.298 295.53 359.384C289.882 371.625 276.859 370.293 275.9 371.839C272.784 376.86 299.706 417.383 301.6 413.974C290.979 389.385 319.501 445.224 334.648 448.761C339.45 449.882 326.403 436.891 334.772 440.762C335.794 441.234 339.768 448.234 340.464 449.824C340.635 450.216 337.847 449.922 341.868 456.766C334.587 452.94 328.431 447.217 321.788 442.399C316.559 435.111 298.293 414.375 291.38 411.437C273.64 403.897 278.943 424.017 252.966 402.409C274.138 390.469 291.858 411.084 293.262 408.438C277.92 393.181 273.136 371.844 271.495 370.365C268.168 367.369 254.323 365.309 268.967 373.245C254.82 380.218 246.581 371.674 234.312 365.573C244.053 357.314 257.569 355.405 268.034 363.716C265.739 357.028 254.806 332.082 247.436 333.878C245.369 334.382 250.86 350.094 210.477 342.498C219.645 325.924 236.794 316.163 251.784 331.999C252.353 310.523 248.886 323.439 248.031 323.291C245.768 322.9 246.116 309.083 209.274 301.499C235.398 317.289 171.291 324.559 202.869 303.67C183.391 278.033 201.257 295.683 208.454 298.675C212.304 300.275 240.369 310.42 241.873 309.464C242.457 309.092 239.971 298.742 248.165 300.587C256.983 302.571 253.951 324.528 257.728 317.71C264.39 305.687 234.655 288.724 234.613 276.048C234.546 256.268 238.731 281.171 245.659 274.057C238.384 306.671 274.357 294.748 254.897 333.237C255.975 335.706 260.124 339.834 260.296 340.241Z" fill="#6C63FF"/>
<path d="M320.53 353.544C318.836 358.768 312.402 364.186 308.535 368.064C301.267 385.759 331.71 436.624 344.074 451.439C340.986 452.819 340.144 451.925 339.961 452.024L329.28 437.37L338.197 454.375C337.004 455.47 336.731 455.364 336.669 455.433C332.765 448.538 328.643 443.566 325.521 436.014C323.632 431.444 327.193 431.632 326.583 430.192C325.73 428.18 318.838 417.876 314.615 407.948C311.488 400.598 304.582 377.087 302.186 373.588C296.097 364.695 268.708 356.277 286.813 348.048C282.657 342.059 283.445 329.093 282.604 319.87C282.252 316.012 283.811 304.585 281.913 301.694C278.965 297.204 276.521 301.542 273.631 299.512C269.342 296.5 264.614 275.599 270.124 274.804C273.382 274.335 273.53 289.626 283.642 266.579C292.016 291.419 293.854 274.797 299.026 277.414C308.957 282.439 278.313 291.052 285.183 327.695C287.958 342.497 298.003 349.851 302.747 330.238C314.105 338.254 310.011 348.229 312.602 349.42C314.556 350.319 325.958 336.801 320.53 353.544Z" fill="#6C63FF"/>
<path d="M296.567 432.405C286.075 432.661 275.796 435.426 266.587 440.469L156.911 437.704L157.113 490.004L268.352 487.179C277.911 491.516 288.369 493.498 298.85 492.96C325.11 491.966 345.861 477.603 345.227 460.887C344.593 444.171 322.804 431.43 296.561 432.412L296.567 432.405Z" fill="#FFB6B6"/>
<path d="M333.57 378.387C343.213 382.538 351.724 388.938 358.393 397.052L455.805 448.943L441.564 483.848L339.38 439.743C328.895 440.203 318.452 438.142 308.926 433.734C284.925 423.018 271.011 401.95 277.817 386.674C284.624 371.397 309.584 367.698 333.574 378.396L333.57 378.387Z" fill="#FFB6B6"/>
<path d="M116.068 432.213L166.386 436.692L270.156 437.79L260.035 492.869L121.637 493.554L116.068 432.213Z" fill="#090814"/>
<path d="M471.544 461.868L461.274 441.447L370.788 397.69L352.303 448.05L435.753 493.297L471.544 461.868Z" fill="#090814"/>
<path d="M0.0045924 493.325C-0.0656038 495.03 0.678412 496.512 1.6703 496.643H571.974C573.041 496.405 573.793 494.727 573.655 492.894C573.541 491.388 572.85 490.203 571.974 490.007H1.67029C0.678405 490.139 -0.0656038 491.621 0.0045924 493.325Z" fill="#CCCCCC"/>
</svg>
